<?xml version="1.0" encoding="utf-8"?>
<!-- Generator: Adobe Illustrator 23.0.3, SVG Export Plug-In . SVG Version: 6.00 Build 0)  -->
<svg version="1.1" id="Layer_1" xmlns="http://www.w3.org/2000/svg" xmlns:xlink="http://www.w3.org/1999/xlink" x="0px" y="0px"
	 viewBox="0 0 55.5 60" enable-background="new 0 0 55.5 60" xml:space="preserve">
<path fill="#FFFFFF" d="M51.8,12.2h-6.7c0.4-0.7,0.8-1.4,1-2.2c0.6-2,0.4-4.1-0.6-5.9c-0.9-1.8-2.5-3.1-4.4-3.7
	c-1.9-0.6-3.9-0.4-5.7,0.6c-3.5,2-5.9,6.1-7.3,9c-1.4-2.9-3.8-7.1-7.3-9c-3.6-2-8.2-0.6-10.1,3.1c-1.4,2.7-1.1,5.8,0.4,8.1H4.4
	c-1.7,0-3,1.4-3,3.1v9.4c0,1.7,1.4,3.1,3,3.1h0.8v26.1c0,3.3,2.6,6,5.8,6h34.2c3.2,0,5.8-2.7,5.8-6V27.8h0.8c1.7,0,3-1.4,3-3.1v-9.4
	C54.8,13.6,53.5,12.2,51.8,12.2z M36.5,3c1.2-0.7,2.6-0.8,3.9-0.4c1.3,0.4,2.4,1.3,3.1,2.6c0.7,1.3,0.8,2.7,0.4,4.1
	c-0.3,1.2-1.1,2.2-2.1,2.9H29.7C30.7,9.6,33.1,5,36.5,3z M12.7,5.2c1.4-2.6,4.5-3.6,7-2.2c3.4,1.9,5.8,6.6,6.9,9.1H14.4
	C12.2,10.7,11.4,7.6,12.7,5.2z M26.9,57.6H11c-1.9,0-3.5-1.6-3.5-3.6v-10h19.4V57.6z M26.9,41.5H7.5V27.8h19.4V41.5z M48.7,53.9
	c0,2-1.6,3.6-3.5,3.6H29.3V43.9h19.4V53.9z M48.7,41.5H29.3V27.8h19.4V41.5z M52.5,24.7c0,0.4-0.3,0.7-0.7,0.7h-2c0,0,0,0,0,0
	c0,0,0,0,0,0H28.1c0,0,0,0,0,0s0,0,0,0H6.3c0,0,0,0,0,0c0,0,0,0,0,0h-2c-0.4,0-0.7-0.3-0.7-0.7v-9.4c0-0.4,0.3-0.7,0.7-0.7h47.4
	c0.4,0,0.7,0.3,0.7,0.7V24.7z"/>
</svg>
