<?xml version="1.0" encoding="utf-8"?>
<!-- Generator: Adobe Illustrator 23.0.3, SVG Export Plug-In . SVG Version: 6.00 Build 0)  -->
<svg version="1.1" id="htmlacademy" xmlns="http://www.w3.org/2000/svg" xmlns:xlink="http://www.w3.org/1999/xlink" x="0px"
	 y="0px" viewBox="0 0 40 40" enable-background="new 0 0 40 40" xml:space="preserve">
<title>htmlacademy</title>
<path d="M20.1,3.3H20L6.9,4.7v24.1L20,36.7l13.1-7.8V4.7L20.1,3.3z M31.5,27.9L20,34.7L8.5,27.9V18l11.4,6.8V26l-7.8-4.7v1.2
	l7.9,4.7v1.3l-7.9-4.7v1.2l7.9,4.7l7.9-4.7v-5.1l3.5-2.1C31.5,17.8,31.5,27.9,31.5,27.9z M31.4,16.5l-3.1,1.9l-1.5,0.9l-6.9-4.1v1.2
	l5.9,3.5h-0.1L25.6,20l-0.9,0.5l-4.9-2.9v1.2l3.9,2.3l-0.9,0.6l-2.9-1.7v1.2l1.9,1.1l-1.9,1.1L8.6,16.7l11.3-6.8
	C19.9,9.9,31.4,16.5,31.4,16.5z M31.5,15.3L19.9,8.5L8.5,15.3V6.3L20,5.1l11.5,1.2V15.3z"/>
</svg>
